<svg width="34" height="34" viewBox="0 0 34 34" fill="none" xmlns="http://www.w3.org/2000/svg">
<circle cx="17" cy="17" r="17" fill="#606770"/>
<g clip-path="url(#clip0_106_1154)">
<path d="M17.4999 20.3501C19.0739 20.3501 20.3499 19.0742 20.3499 17.5001C20.3499 15.9261 19.0739 14.6501 17.4999 14.6501C15.9259 14.6501 14.6499 15.9261 14.6499 17.5001C14.6499 19.0742 15.9259 20.3501 17.4999 20.3501Z" fill="white"/>
<path d="M25.1 9.9H22.0885L20.9105 8.6175C20.559 8.228 20.046 8 19.514 8H15.486C14.954 8 14.441 8.228 14.08 8.6175L12.9115 9.9H9.9C8.855 9.9 8 10.755 8 11.8V23.2C8 24.245 8.855 25.1 9.9 25.1H25.1C26.145 25.1 27 24.245 27 23.2V11.8C27 10.755 26.145 9.9 25.1 9.9ZM17.5 22.25C14.878 22.25 12.75 20.122 12.75 17.5C12.75 14.878 14.878 12.75 17.5 12.75C20.122 12.75 22.25 14.878 22.25 17.5C22.25 20.122 20.122 22.25 17.5 22.25Z" fill="white"/>
</g>
<defs>
<clipPath id="clip0_106_1154">
<rect width="24" height="24" fill="white" transform="translate(5 5)"/>
</clipPath>
</defs>
</svg>
