<svg width="40" height="13" viewBox="0 0 40 13" fill="none" xmlns="http://www.w3.org/2000/svg">
<path d="M2.6542 4.47682V12.5573H0.269287V0.664097H2.96801L6.92195 6.53224L10.8759 0.664097H13.5746V12.5573H11.1897V4.47682L6.92195 10.392L2.6542 4.47682Z" fill="#C5C5C5"/>
<path d="M21.1243 10.6117C21.8461 10.6117 22.4841 10.4287 23.0385 10.0625C23.5929 9.68598 24.0165 9.18913 24.3094 8.57198C24.6128 7.95483 24.7644 7.30107 24.7644 6.6107C24.7644 5.92033 24.6128 5.2718 24.3094 4.66511C24.0165 4.04796 23.5929 3.5511 23.0385 3.17453C22.4841 2.79797 21.8461 2.60969 21.1243 2.60969C20.4026 2.60969 19.7645 2.79797 19.2101 3.17453C18.6557 3.5511 18.2268 4.04796 17.9235 4.66511C17.6306 5.2718 17.4842 5.92033 17.4842 6.6107C17.4842 7.30107 17.6306 7.95483 17.9235 8.57198C18.2268 9.18913 18.6557 9.68598 19.2101 10.0625C19.7645 10.4287 20.4026 10.6117 21.1243 10.6117ZM15.0993 6.6107C15.0993 5.50192 15.3555 4.48728 15.8681 3.56679C16.3806 2.63584 17.0919 1.89839 18.002 1.35447C18.9224 0.810539 19.9632 0.538574 21.1243 0.538574C22.2854 0.538574 23.3209 0.810539 24.231 1.35447C25.1515 1.89839 25.868 2.63584 26.3805 3.56679C26.8931 4.48728 27.1494 5.50192 27.1494 6.6107C27.1494 7.71947 26.8931 8.73934 26.3805 9.67029C25.868 10.5908 25.1515 11.323 24.231 11.8669C23.3209 12.4109 22.2854 12.6828 21.1243 12.6828C19.9632 12.6828 18.9224 12.4109 18.002 11.8669C17.0919 11.323 16.3806 10.5908 15.8681 9.67029C15.3555 8.73934 15.0993 7.71947 15.0993 6.6107Z" fill="#C5C5C5"/>
<path d="M39.6924 12.5573H37.1192L35.8953 9.57615H30.9058L29.6663 12.5573H27.0774L32.0355 0.664097H34.8441L39.6924 12.5573ZM35.0637 7.53642L33.432 3.51972L31.7531 7.53642H35.0637Z" fill="#C5C5C5"/>
</svg>
