<svg width="52" height="17" viewBox="0 0 52 17" fill="none" xmlns="http://www.w3.org/2000/svg">
<path d="M3.14576 5.3509V16.0092H0V0.321817H3.55968L8.77502 8.06205L13.9904 0.321817H17.55V16.0092H14.4043V5.3509L8.77502 13.1532L3.14576 5.3509Z" fill="#FFA63D"/>
<path d="M27.5083 13.443C28.4603 13.443 29.3019 13.2015 30.0332 12.7186C30.7644 12.2219 31.3232 11.5665 31.7095 10.7525C32.1097 9.93847 32.3097 9.07614 32.3097 8.16553C32.3097 7.25491 32.1097 6.39949 31.7095 5.59925C31.3232 4.78521 30.7644 4.12985 30.0332 3.63315C29.3019 3.13645 28.4603 2.8881 27.5083 2.8881C26.5563 2.8881 25.7146 3.13645 24.9834 3.63315C24.2521 4.12985 23.6865 4.78521 23.2863 5.59925C22.9 6.39949 22.7069 7.25491 22.7069 8.16553C22.7069 9.07614 22.9 9.93847 23.2863 10.7525C23.6865 11.5665 24.2521 12.2219 24.9834 12.7186C25.7146 13.2015 26.5563 13.443 27.5083 13.443ZM19.5611 8.16553C19.5611 6.70302 19.8991 5.3647 20.5752 4.15054C21.2513 2.92259 22.1895 1.94989 23.3898 1.23243C24.604 0.514978 25.9768 0.15625 27.5083 0.15625C29.0398 0.15625 30.4057 0.514978 31.6061 1.23243C32.8202 1.94989 33.7653 2.92259 34.4414 4.15054C35.1174 5.3647 35.4555 6.70302 35.4555 8.16553C35.4555 9.62803 35.1174 10.9733 34.4414 12.2012C33.7653 13.4154 32.8202 14.3812 31.6061 15.0986C30.4057 15.8161 29.0398 16.1748 27.5083 16.1748C25.9768 16.1748 24.604 15.8161 23.3898 15.0986C22.1895 14.3812 21.2513 13.4154 20.5752 12.2012C19.8991 10.9733 19.5611 9.62803 19.5611 8.16553Z" fill="#FFA63D"/>
<path d="M52 16.0092H48.6059L46.9916 12.077H40.4103L38.7754 16.0092H35.3606L41.9004 0.321817H45.605L52 16.0092ZM45.8947 9.38658L43.7424 4.08845L41.5279 9.38658H45.8947Z" fill="#FFA63D"/>
</svg>
