<svg width="68" height="68" viewBox="0 0 68 68" fill="none" xmlns="http://www.w3.org/2000/svg">
<g filter="url(#filter0_d_164_2234)">
<circle cx="34" cy="34" r="28" fill="#FFA63D"/>
<g clip-path="url(#clip0_164_2234)">
<path d="M41.9997 33.3335H34.6664V26.0002C34.6664 25.8234 34.5962 25.6538 34.4712 25.5288C34.3461 25.4037 34.1766 25.3335 33.9997 25.3335C33.8229 25.3335 33.6534 25.4037 33.5283 25.5288C33.4033 25.6538 33.3331 25.8234 33.3331 26.0002V33.3335H25.9997C25.8229 33.3335 25.6534 33.4037 25.5283 33.5288C25.4033 33.6538 25.3331 33.8234 25.3331 34.0002C25.3298 34.0868 25.3451 34.1731 25.378 34.2534C25.4109 34.3336 25.4606 34.4058 25.5238 34.4652C25.587 34.5246 25.6621 34.5698 25.7442 34.5976C25.8263 34.6255 25.9135 34.6355 25.9997 34.6268H33.3331V42.0002C33.3331 42.177 33.4033 42.3465 33.5283 42.4716C33.6534 42.5966 33.8229 42.6668 33.9997 42.6668C34.1766 42.6668 34.3461 42.5966 34.4712 42.4716C34.5962 42.3465 34.6664 42.177 34.6664 42.0002V34.6668H41.9997C42.1766 34.6668 42.3461 34.5966 42.4712 34.4716C42.5962 34.3465 42.6664 34.177 42.6664 34.0002C42.6664 33.8234 42.5962 33.6538 42.4712 33.5288C42.3461 33.4037 42.1766 33.3335 41.9997 33.3335Z" fill="white"/>
</g>
</g>
<defs>
<filter id="filter0_d_164_2234" x="0" y="0" width="68" height="68" filterUnits="userSpaceOnUse" color-interpolation-filters="sRGB">
<feFlood flood-opacity="0" result="BackgroundImageFix"/>
<feColorMatrix in="SourceAlpha" type="matrix" values="0 0 0 0 0 0 0 0 0 0 0 0 0 0 0 0 0 0 127 0" result="hardAlpha"/>
<feOffset/>
<feGaussianBlur stdDeviation="3"/>
<feComposite in2="hardAlpha" operator="out"/>
<feColorMatrix type="matrix" values="0 0 0 0 0.0916667 0 0 0 0 0.0916667 0 0 0 0 0.0916667 0 0 0 0.25 0"/>
<feBlend mode="normal" in2="BackgroundImageFix" result="effect1_dropShadow_164_2234"/>
<feBlend mode="normal" in="SourceGraphic" in2="effect1_dropShadow_164_2234" result="shape"/>
</filter>
<clipPath id="clip0_164_2234">
<rect width="24" height="24" fill="white" transform="translate(22 22)"/>
</clipPath>
</defs>
</svg>
