<svg width="18" height="18" viewBox="0 0 18 18" fill="none" xmlns="http://www.w3.org/2000/svg">
<circle cx="9" cy="9" r="9" fill="#FFA63D"/>
<path d="M6.49976 12.4752C6.49976 12.5737 6.57955 12.6534 6.67797 12.6534H8.07805C8.17647 12.6534 8.25626 12.5737 8.25626 12.4752V10.8071C8.25626 10.7087 8.33605 10.6289 8.43448 10.6289H9.47194C11.0179 10.6289 12.0134 9.68126 12.0134 8.20235V8.19278C12.0134 6.71387 11.0179 5.74707 9.47194 5.74707H6.67797C6.57955 5.74707 6.49976 5.82686 6.49976 5.92529V12.4752ZM9.05076 7.09197C9.79739 7.09197 10.2377 7.47486 10.2377 8.19278V8.20235C10.2377 8.92027 9.79739 9.30795 9.05076 9.30795H8.43448C8.33605 9.30795 8.25626 9.22816 8.25626 9.12973V7.27019C8.25626 7.17176 8.33605 7.09197 8.43448 7.09197H9.05076Z" fill="white"/>
</svg>
