<svg width="18" height="18" viewBox="0 0 18 18" fill="none" xmlns="http://www.w3.org/2000/svg">
<g clip-path="url(#clip0_139_2187)">
<path d="M4.6875 2.25C3.3413 2.25 2.25 3.3413 2.25 4.6875V13.3125C2.25 14.6587 3.3413 15.75 4.6875 15.75H13.3125C14.6587 15.75 15.75 14.6587 15.75 13.3125V4.6875C15.75 3.3413 14.6587 2.25 13.3125 2.25H4.6875ZM3.375 4.6875C3.375 3.96263 3.96263 3.375 4.6875 3.375H13.3125C14.0374 3.375 14.625 3.96263 14.625 4.6875V13.3125C14.625 14.0374 14.0374 14.625 13.3125 14.625H4.6875C3.96263 14.625 3.375 14.0374 3.375 13.3125V4.6875ZM12.96 6.96048C13.1798 6.74093 13.18 6.38478 12.9604 6.16499C12.7409 5.94518 12.3847 5.94498 12.165 6.16452L7.49744 10.8267L5.83563 9.16477C5.61596 8.9451 5.25981 8.9451 5.04013 9.1647C4.82045 9.38437 4.82045 9.74055 5.0401 9.96023L7.09943 12.0196C7.31901 12.2392 7.67498 12.2394 7.89473 12.0199L12.96 6.96048Z" fill="#FF6B00"/>
</g>
<defs>
<clipPath id="clip0_139_2187">
<rect width="18" height="18" fill="white"/>
</clipPath>
</defs>
</svg>
