<svg width="18" height="18" viewBox="0 0 18 18" fill="none" xmlns="http://www.w3.org/2000/svg">
<path d="M2.25 4.3125C2.25 3.17342 3.17342 2.25 4.3125 2.25H13.6875C14.8266 2.25 15.75 3.17342 15.75 4.3125V13.6875C15.75 14.8266 14.8266 15.75 13.6875 15.75H4.3125C3.17342 15.75 2.25 14.8266 2.25 13.6875V4.3125ZM4.3125 3.375C3.79473 3.375 3.375 3.79473 3.375 4.3125V13.6875C3.375 14.2053 3.79473 14.625 4.3125 14.625H13.6875C14.2053 14.625 14.625 14.2053 14.625 13.6875V4.3125C14.625 3.79473 14.2053 3.375 13.6875 3.375H4.3125Z" fill="#C2C5C9"/>
</svg>
