<svg width="15" height="15" viewBox="0 0 15 15" fill="none" xmlns="http://www.w3.org/2000/svg">
<circle cx="7.5" cy="7.5" r="7.5" fill="#EBEDF0"/>
<path d="M7.32548 10.662C7.16948 10.662 7.04648 10.614 6.95648 10.518C6.86648 10.422 6.82148 10.299 6.82148 10.149C6.82148 10.011 6.86648 9.894 6.95648 9.798C7.04648 9.702 7.16948 9.654 7.32548 9.654C7.48148 9.654 7.60148 9.702 7.68548 9.798C7.77548 9.888 7.82048 10.005 7.82048 10.149C7.82048 10.299 7.77548 10.422 7.68548 10.518C7.60148 10.614 7.48148 10.662 7.32548 10.662ZM5.44448 5.217C5.61248 4.773 5.87348 4.419 6.22748 4.155C6.58148 3.885 6.99848 3.75 7.47848 3.75C7.84448 3.75 8.18048 3.834 8.48648 4.002C8.79848 4.17 9.04448 4.401 9.22448 4.695C9.40448 4.983 9.49448 5.304 9.49448 5.658C9.49448 5.994 9.40148 6.321 9.21548 6.639C9.03548 6.951 8.73248 7.266 8.30648 7.584C8.07248 7.764 7.91648 7.935 7.83848 8.097C7.76048 8.259 7.72448 8.508 7.73048 8.844L6.92048 8.862C6.91448 8.406 6.98048 8.031 7.11848 7.737C7.25648 7.443 7.49048 7.176 7.82048 6.936C8.15648 6.684 8.38448 6.462 8.50448 6.27C8.62448 6.078 8.68448 5.868 8.68448 5.64C8.68448 5.31 8.57348 5.049 8.35148 4.857C8.12948 4.659 7.83848 4.56 7.47848 4.56C7.15448 4.56 6.89048 4.638 6.68648 4.794C6.48248 4.95 6.32048 5.187 6.20048 5.505L5.44448 5.217Z" fill="#C2C5C9"/>
</svg>
